<?xml version="1.0"?>
<svg width="876.97082" height="796.54686" xmlns="http://www.w3.org/2000/svg" xmlns:svg="http://www.w3.org/2000/svg">
 <metadata>AAA0RWp1bWIAAAAeanVtZGMycGEAEQAQgAAAqgA4m3EDYzJwYQAAADQfanVtYgAAAEdqdW1kYzJtYQARABCAAACqADibcQN1cm46dXVpZDo4MjI4YzQzMS1iYjU3LTQzNTUtYThhNi0zNjIxZjI1MGVmZTEAAAABtWp1bWIAAAApanVtZGMyYXMAEQAQgAAAqgA4m3EDYzJwYS5hc3NlcnRpb25zAAAAANdqdW1iAAAAJmp1bWRjYm9yABEAEIAAAKoAOJtxA2MycGEuYWN0aW9ucwAAAACpY2JvcqFnYWN0aW9uc4GjZmFjdGlvbmtjMnBhLmVkaXRlZG1zb2Z0d2FyZUFnZW50bUFkb2JlIEZpcmVmbHlxZGlnaXRhbFNvdXJjZVR5cGV4U2h0dHA6Ly9jdi5pcHRjLm9yZy9uZXdzY29kZXMvZGlnaXRhbHNvdXJjZXR5cGUvY29tcG9zaXRlV2l0aFRyYWluZWRBbGdvcml0aG1pY01lZGlhAAAArWp1bWIAAAAoanVtZGNib3IAEQAQgAAAqgA4m3EDYzJwYS5oYXNoLmRhdGEAAAAAfWNib3KlamV4Y2x1c2lvbnOBomVzdGFydBkBA2ZsZW5ndGgZRbRkbmFtZW5qdW1iZiBtYW5pZmVzdGNhbGdmc2hhMjU2ZGhhc2hYICbZjsWzDxItAW+5ZD+xClz1EJW9LVjrq62FBZZmGT72Y3BhZEkAAAAAAAAAAAAAAAILanVtYgAAACRqdW1kYzJjbAARABCAAACqADibcQNjMnBhLmNsYWltAAAAAd9jYm9yqGhkYzp0aXRsZW9HZW5lcmF0ZWQgSW1hZ2VpZGM6Zm9ybWF0bWltYWdlL3N2Zyt4bWxqaW5zdGFuY2VJRHgseG1wOmlpZDozMDJiYjI1My0wMDEzLTQwMmMtOWEzNy1kMTZlMzNmZTkwZGNvY2xhaW1fZ2VuZXJhdG9yeDZBZG9iZV9JbGx1c3RyYXRvci8yOC43IGFkb2JlX2MycGEvMC43LjYgYzJwYS1ycy8wLjI1LjJ0Y2xhaW1fZ2VuZXJhdG9yX2luZm+Bv2RuYW1lcUFkb2JlIElsbHVzdHJhdG9yZ3ZlcnNpb25kMjguN/9pc2lnbmF0dXJleBlzZWxmI2p1bWJmPWMycGEuc2lnbmF0dXJlamFzc2VydGlvbnOComN1cmx4J3NlbGYjanVtYmY9YzJwYS5hc3NlcnRpb25zL2MycGEuYWN0aW9uc2RoYXNoWCBKacG9/6jeQTB4viTtzPgxOsHRZJU0VnGgDWsGszfUr6JjdXJseClzZWxmI2p1bWJmPWMycGEuYXNzZXJ0aW9ucy9jMnBhLmhhc2guZGF0YWRoYXNoWCD/0fqY94ZfpXP/GwYLzSbMAY5/t8xxylLFfhjEIzh1UGNhbGdmc2hhMjU2AAAwEGp1bWIAAAAoanVtZGMyY3MAEQAQgAAAqgA4m3EDYzJwYS5zaWduYXR1cmUAAAAv4GNib3LShFkM76IBOCQYIYJZBj0wggY5MIIEIaADAgECAhAVjf8nrCPSuCVLTmM3Hh2eMA0GCSqGSIb3DQEBCwUAMHUxCzAJBgNVBAYTAlVTMSMwIQYDVQQKExpBZG9iZSBTeXN0ZW1zIEluY29ycG9yYXRlZDEdMBsGA1UECxMUQWRvYmUgVHJ1c3QgU2VydmljZXMxIjAgBgNVBAMTGUFkb2JlIFByb2R1Y3QgU2VydmljZXMgRzMwHhcNMjQxMDE1MDAwMDAwWhcNMjUxMDE1MjM1OTU5WjCBqzETMBEGA1UEAwwKQWRvYmUgQzJQQTEoMCYGA1UECwwfQ29udGVudCBBdXRoZW50aWNpdHkgSW5pdGlhdGl2ZTETMBEGA1UECgwKQWRvYmUgSW5jLjERMA8GA1UEBwwIU2FuIEpvc2UxEzARBgNVBAgMCkNhbGlmb3JuaWExCzAJBgNVBAYTAlVTMSAwHgYJKoZIhvcNAQkBFhFjYWktb3BzQGFkb2JlLmNvbTCCASIwDQYJKoZIhvcNAQEBBQADggEPADCCAQoCggEBAMMQwYHQfT1y6TFz8OaDYGJBVgzz9Wkn7YfU2TyDTrTkJYadb+IfoTMWVhY5Gd0SUbqEga7EkmAWhH4gzCorIv7DsbhRygVf/5da790q464sQDVyJaoxnSGMnWjGhWv+aLxc/5uPklM9HHGM6sPr0gM7kckhp6YJvBpo/khCXC/xiB86lPW1MtzbIs2NqGNvMo99q25DqngA0jOdTqiCSpaBARRXsczLp86VPitrC6oXqEfBSTGkdHxl2v4Kkc4ZIgRYcFISz0vbOvkwp89PVGTJV23Rv4hSo91DxVA46odMLRYHM9uA61JWlnopbSh6LspgR7oq875jhtFbUj3qcTkCAwEAAaOCAYwwggGIMAwGA1UdEwEB/wQCMAAwDgYDVR0PAQH/BAQDAgeAMB4GA1UdJQQXMBUGCSqGSIb3LwEBDAYIKwYBBQUHAwQwgY4GA1UdIASBhjCBgzCBgAYJKoZIhvcvAQIDMHMwcQYIKwYBBQUHAgIwZQxjWW91IGFyZSBub3QgcGVybWl0dGVkIHRvIHVzZSB0aGlzIExpY2Vuc2UgQ2VydGlmaWNhdGUgZXhjZXB0IGFzIHBlcm1pdHRlZCBieSB0aGUgbGljZW5zZSBhZ3JlZW1lbnQuMF0GA1UdHwRWMFQwUqBQoE6GTGh0dHA6Ly9wa2ktY3JsLnN5bWF1dGguY29tL2NhXzdhNWMzYTBjNzMxMTc0MDZhZGQxOTMxMmJjMWJjMjNmL0xhdGVzdENSTC5jcmwwNwYIKwYBBQUHAQEEKzApMCcGCCsGAQUFBzABhhtodHRwOi8vcGtpLW9jc3Auc3ltYXV0aC5jb20wHwYDVR0jBBgwFoAUVyl6Mk3M/uQ1TsAfJHPOc1Or32owDQYJKoZIhvcNAQELBQADggIBAKq5ehS0PnPS2Gn9IoMk4BKzS/V5ponok96IShXrydwTe5FpGQ9c521cN151+bYEGiqvgIkgpXTcWBCqlPkavS69uhhoJQUgNLPw7NpMPti5Z05qIwBwh9wr1UW4Rhx62rIZp34MJhdU0pGlpOzcRIW7fcEKIhDJC0kHjOEuArvte+hcxHcvs85A5EVqnkjkDv6htlkbaP7yKt9BAn+r+hbWsySNQliKoQSuaCYqEjWy7AlSYWq91HGvQ9dbo3mVuJNozwrJ864k5halX7Xd5Nkl1EIO8EHEHF3ygSLVmbfM7Z9CGKGcyWtcfZfXb1ygCbzbA6M+Lg3q0vM/a8y7BEL8y9cj206ePv+pk0wFrKGg7ZpGYJt1/rH3z1918zBZn8yB4mH1I2uZyitm7OD+9bYrf9VPxQ9sXZac2UrqUagjBs/lE3lyPCKzeWUf/hfK0rJkQErY54IM/8A7nMHA5SW2OP0SqtwawIuC2pizCH8KP3Wy+eUw5SDnexwn5koGm3NVjtCo4ty1v1WZz/VRvFolBvlqrTdTkCAGZhVDlnV0Bi2oPiNTmmdQVyQzbCYl3INkxjQUhD6OOAJH5/TMxRisgeVLqzDeDR9KpWpoa4SoldPm+9xY8d99D/368QZs8eTaQEITSpLMfheM9UvAMtaNkwSJJHgBWw88vH/xcbsrWQalMIIGoTCCBImgAwIBAgIQDKi2VHuJ5tIGiXXNi5uJ4jANBgkqhkiG9w0BAQsFADBsMQswCQYDVQQGEwJVUzEjMCEGA1UEChMaQWRvYmUgU3lzdGVtcyBJbmNvcnBvcmF0ZWQxHTAbBgNVBAsTFEFkb2JlIFRydXN0IFNlcnZpY2VzMRkwFwYDVQQDExBBZG9iZSBSb290IENBIEcyMB4XDTE2MTEyOTAwMDAwMFoXDTQxMTEyODIzNTk1OVowdTELMAkGA1UEBhMCVVMxIzAhBgNVBAoTGkFkb2JlIFN5c3RlbXMgSW5jb3Jwb3JhdGVkMR0wGwYDVQQLExRBZG9iZSBUcnVzdCBTZXJ2aWNlczEiMCAGA1UEAxMZQWRvYmUgUHJvZHVjdCBTZXJ2aWNlcyBHMzCCAiIwDQYJKoZIhvcNAQEBBQADggIPADCCAgoCggIBALcfLr29CbNcSGz+DIOubAHqUXglpIA+iaexsohk2vaJdoH5+R3zlfx4mI2Yjs/k7hxVPg1zWnfOsRKoFXhlTJbyBxnvxB3CgcbxA13ZU1wecyBJH5dP0hp+yer01/DDcm30oveXkA1DmfX4wmqvjwRY0uWX3jZs4v8kfjLANIyiqFmq0kQhRRQaVBUFnwIC8lzssTp10DkLnY8TY+lrtF9CAdd/iB9dVnCnFhFlzOI+I4eoS8tvQndxKFRt6MXFXpzBfxDIA9rV48eDVG0zQdf4PfjEejcOTIaeZP4N2rTRMQMYbboAvk90g0oUhCX7NqrookVB7V90YTnCtbNTiYE+bNrPcRsuf7sVaXACGitiogyV1t8cTfJ1z5pNTUlbv5sbX2qa+E70iW4a1O1AN6oUGPZ+Dp9rGx9V9U8Puy03pPCggOWQ4IThET4iKfybfPd6qL9WxOayZGoHFYNFqo4fPTYQmgQPFckbd6L5RsginTVdlC925+b3RbE5O6qpqfZmpM9f0rlV2MSH+i+vvEVzmrV1mj5JrnLixNUzznj+0tTeSU6BQrPNJdg9hLcaEFxgkePCv3E1Eec1f30PoXSDs6KNJxZ++2PGHXdpO/8fQRO/KZqHjJ8OlV2H1wrlhII+qe46Wy6MUDKFjAlc5YO9llTYSRZUsOGg/H3Ons3hAgMBAAGjggE0MIIBMDASBgNVHRMBAf8ECDAGAQH/AgEAMDUGA1UdHwQuMCwwKqAooCaGJGh0dHA6Ly9jcmwuYWRvYmUuY29tL2Fkb2Jlcm9vdGcyLmNybDAOBgNVHQ8BAf8EBAMCAQYwFAYDVR0lBA0wCwYJKoZIhvcvAQEHMFcGA1UdIARQME4wTAYJKoZIhvcvAQIDMD8wPQYIKwYBBQUHAgEWMWh0dHBzOi8vd3d3LmFkb2JlLmNvbS9taXNjL3BraS9wcm9kX3N2Y2VfY3BzLmh0bWwwJAYDVR0RBB0wG6QZMBcxFTATBgNVBAMTDFNZTUMtNDA5Ni0zMzAdBgNVHQ4EFgQUVyl6Mk3M/uQ1TsAfJHPOc1Or32owHwYDVR0jBBgwFoAUphzhbVQkTKiPSHK/bqmM1eTsMdQwDQYJKoZIhvcNAQELBQADggIBAHHO5QeMptwt3MjgO2VeAJKBleuVICSvn2k4Xcl88bjapU0AZTslwRhcnr5Zt9wbBjtZgyX6M7si8k9vuyFcVhb1ucmDFfuUtTXgoTFyGZws1jV57oiEEnZjw/NkxFQpJ3kKRRE+DQ8EsaPP8pH8Oh8fH4bis9MI4Y5FjF5it3TWVyLmFXG8pxy8iTswPr1lN7B9k9Iz7RaexTd/RmZ3uGBtGlTJZx4bR4cWl1Qor9kVaEeMNULbyh0Kc3zzm0edwpe+Ii0rRlRSj8Ai2EUqWEReyer1Uv18VuC87zdm+lRCjnLyZjdy4acRUZd2GM1vncJ8LW7h1uliZZo332y5tTMSxRpRveWgs99V/MM6mDbL2/fuQF3L/C5evbS15jtTrbGP98CCzVBKeFS2UxN8Kpt5/ITJwpWYoismQkuy+BNJgpW8fgUUjB93laOo4L3uNf3ytxUDOEAjSJKRrOxY4y8vqbQvicslqnH7zkaxVfxjoAeYQ/huYISXCKXooA/5R7AkWLDmubBXakRIcCFi5klrTcHy2XSd3ZAnO8kaZt4GpeqkX05GKcUzccSsrym5GiQ6MUfb7Vqwt4ja0HfVb8Qt017bs6B26rpnqoHAKnn1hfburJ0OEPRZF83riQKzbkrzyIYAY1bYIB9MNL5v5ZgkGIgv2NdhngsX4GJS9927omZzaWdUc3ShaXRzdFRva2Vuc4GhY3ZhbFkOOjCCDjYwAwIBADCCDi0GCSqGSIb3DQEHAqCCDh4wgg4aAgEDMQ8wDQYJYIZIAWUDBAIBBQAwgYIGCyqGSIb3DQEJEAEEoHMEcTBvAgEBBglghkgBhv1sBwEwMTANBglghkgBZQMEAgEFAAQgj66igzQamu4FPnWGU2ucvZgHFsD5HvtrT1qNcYq7tlICEQDQBmq9dPaeJ2Domx+Fwr7ZGA8yMDI1MDIyODIyNDMwM1oCCH31a81VHIZ0oIILwDCCBQowggLyoAMCAQICEAwLL8d6eM+67WVWVMGaJAMwDQYJKoZIhvcNAQELBQAwYzELMAkGA1UEBhMCVVMxFzAVBgNVBAoTDkRpZ2lDZXJ0LCBJbmMuMTswOQYDVQQDEzJEaWdpQ2VydCBUcnVzdGVkIEc0IFJTQTQwOTYgU0hBMjU2IFRpbWVTdGFtcGluZyBDQTAeFw0yNDExMjAwMDAwMDBaFw0zNjAyMTkyMzU5NTlaMFsxCzAJBgNVBAYTAlVTMREwDwYDVQQKEwhEaWdpQ2VydDE5MDcGA1UEAxMwRUNDMjU2X1NIQTI1Nl9UaW1lc3RhbXBfUmVzcG9uZGVyX0Fkb2JlX05PVl8yMDI0MFkwEwYHKoZIzj0CAQYIKoZIzj0DAQcDQgAE0PwehfiBmKYqkEC8Tn6pFJnk5kkVmc8UgrcDPNrIlv0m12s5LUchFpsCFbPvDyY4VfQuH1CdtyBkcbH8yTPJXqOCAYswggGHMA4GA1UdDwEB/wQEAwIHgDAMBgNVHRMBAf8EAjAAMBYGA1UdJQEB/wQMMAoGCCsGAQUFBwMIMCAGA1UdIAQZMBcwCAYGZ4EMAQQCMAsGCWCGSAGG/WwHATAfBgNVHSMEGDAWgBS6FtltTYUvcyl2mi91jGogj57IbzAdBgNVHQ4EFgQU7NEcb3znoE3kMT+HAAjUrdR9NrswWgYDVR0fBFMwUTBPoE2gS4ZJaHR0cDovL2NybDMuZGlnaWNlcnQuY29tL0RpZ2lDZXJ0VHJ1c3RlZEc0UlNBNDA5NlNIQTI1NlRpbWVTdGFtcGluZ0NBLmNybDCBkAYIKwYBBQUHAQEEgYMwgYAwJAYIKwYBBQUHMAGGGGh0dHA6Ly9vY3NwLmRpZ2ljZXJ0LmNvbTBYBggrBgEFBQcwAoZMaHR0cDovL2NhY2VydHMuZGlnaWNlcnQuY29tL0RpZ2lDZXJ0VHJ1c3RlZEc0UlNBNDA5NlNIQTI1NlRpbWVTdGFtcGluZ0NBLmNydDANBgkqhkiG9w0BAQsFAAOCAgEAouzBIPJ5Ly2riyO3AI9tQ4JzBK4dJp7QreHOLbFvciUGXWb9Z/BNXbnmsm+iImfJmGpmyJq03rlSsBqlEiE2U4lYbRUT980Q/Q6RZPhMeD9NdCErR/3g9ZYCum1X2mNIL83CEUD9wsCM6gWQBPNXOUCDYz7PNXLySzhSnf3F+8zoaEL684jQ8teVDU+X7lEXtn4qADULETWDplVwHYNkyuzpLWA/hB/w/IFq+5x0IUSTLg+eBjY4mZzT52F8+hd4+wbtmlZYq70BgALK1tuy6oYPZLFufmi/oPf5cqkaDK1i0suCg0Gs7TwfjyrJHnDtUe3WyW8O1ARVZfhmxmlHOMeh71SzTS+YR44i63/QOM8XudnvWaqUlO5A7u3bEV75vriyzF4xxUsf49LLSHMZ0B8Di+AOUUblB9V8NcM9gohryBzXKGK5Kn5G+k7CiVO57Q6jShSmd+PbARK03V8FaCHeM0v3FfwOaztSsOWjTv81EwrUJG3DIPPFxlqiJmmJiB4SLx2hNZ0XT1gmtEIa8b4qHj+OaeP86nfya1WzbKBLhAUkSDwd/lYi2qBZYpmUVHj88CmL8k63eoO9plbReD62278tZKglJrGQzBap99w0dDfEM6pM4q927nzciOZPeUatzV3G3zWA8famfIIwruDR7UsQHSSrMM2/YIuo8hUwggauMIIElqADAgECAhAHNje3JFR82Ees/ShmKl5bMA0GCSqGSIb3DQEBCwUAMGIxCzAJBgNVBAYTAlVTMRUwEwYDVQQKEwxEaWdpQ2VydCBJbmMxGTAXBgNVBAsTEHd3dy5kaWdpY2VydC5jb20xITAfBgNVBAMTGERpZ2lDZXJ0IFRydXN0ZWQgUm9vdCBHNDAeFw0yMjAzMjMwMDAwMDBaFw0zNzAzMjIyMzU5NTlaMGMxCzAJBgNVBAYTAlVTMRcwFQYDVQQKEw5EaWdpQ2VydCwgSW5jLjE7MDkGA1UEAxMyRGlnaUNlcnQgVHJ1c3RlZCBHNCBSU0E0MDk2IFNIQTI1NiBUaW1lU3RhbXBpbmcgQ0EwggIiMA0GCSqGSIb3DQEBAQUAA4ICDwAwggIKAoICAQDGhjUGSbPBPXJJUVXHJQPE8pE3qZdRodbSg9GeTKJtoLDMg/la9hGhRBVCX6SI82j6ffOciQt/nR+eDzMfUBMLJnOWbfhXqAJ9/UO0hNoR8XOxs+4rgISKIhjf69o9xBd/qxkrPkLcZ47qUT3w1lbU5ygt69OxtXXnHwZljZQp09nsad/ZkIdGAHvbREGJ3HxqV3rwN3mfXazL6IRktFLydkf3YYMZ3V+0VAshaG43IbtArF+y3kp9zvU5EmfvDqVjbOSmxR3NNg1c1eYbqMFkdECnwHLFuk4fsbVYTXn+149zk6wsOeKlSNbwsDETqVcplicu9Yemj052FVUmcJgmf6AaRyBD40NjgHt1biclkJg6OBGz9vae5jtb7IHeIhTZgirHkr+g3uM+onP65x9abJTyUpURK1h0QCirc0PO30qhHGs4xSnzyqqWc0Jon7ZGs506o9UD4L/wojzKQtwYSH8UNM/STKvvmz3+DrhkKvp1KCRB7UK/BZxmSVJQ9FHzNklNiyDSLFc1eSuo80VgvCONWPfcYd6T/jnA+bIwpUzX6ZhKWD7TA4j+s4/TXkt2ElGTyYwMO1uKIqjBJgj5FBASA31fI7tk42PgpuE+9sJ0sj8eCXbsq11GdeJgo1gJASgADoRU7s7pXcheMBK9Rp6103a50g5rmQzSM7TNsQIDAQABo4IBXTCCAVkwEgYDVR0TAQH/BAgwBgEB/wIBADAdBgNVHQ4EFgQUuhbZbU2FL3MpdpovdYxqII+eyG8wHwYDVR0jBBgwFoAU7NfjgtJxXWRM3y5nP+e6mK4cD08wDgYDVR0PAQH/BAQDAgGGMBMGA1UdJQQMMAoGCCsGAQUFBwMIMHcGCCsGAQUFBwEBBGswaTAkBggrBgEFBQcwAYYYaHR0cDovL29jc3AuZGlnaWNlcnQuY29tMEEGCCsGAQUFBzAChjVodHRwOi8vY2FjZXJ0cy5kaWdpY2VydC5jb20vRGlnaUNlcnRUcnVzdGVkUm9vdEc0LmNydDBDBgNVHR8EPDA6MDigNqA0hjJodHRwOi8vY3JsMy5kaWdpY2VydC5jb20vRGlnaUNlcnRUcnVzdGVkUm9vdEc0LmNybDAgBgNVHSAEGTAXMAgGBmeBDAEEAjALBglghkgBhv1sBwEwDQYJKoZIhvcNAQELBQADggIBAH1ZjsCTtm+YqUQiAX5m1tghQuGwGC4QTRPPMFPOvxj7x1Bd4ksp+3CKDaopafxpwc8dB+k+YMjYC+VcW9dth/qEICU0MWfNthKWb8RQTGIdDAiCqBa9qVbPFXONASIlzpVpP0d3+3J0FNf/q0+KLHqrhc1DX+1gtqpPkWaeLJ7giqzl/Yy8ZCaHbJK9nXzQcAp876i8dU+6WvepELJd6f8oVInw1YpxdmXazPByoyP6wCeCRK6ZJxurJB4mwbfeKuv2nrF5mYGjVoarCkXJ38SNoOeY+/umnXKvxMfBwWpx2cYTgAnEtp/Nh4cku0+jSbl3ZpHxcpzpSwJSpzd+k1OsOx0ISQ+UzTl63f8lY5knLD0/a6fxZsNBzU+2QJshIUDQtxMkzdwdeDrknq3lNHGS1yZr5Dhzq6YBT70/O3itTK37xJV77QpfMzmHQXh6OOmc4d0j/R0o08f56PGYX/sr2H7yRp11LB4nLCbbbxV7HhmLNriT1ObyF5lZynDwN7+YAN8gFk8n+2BnFqFmut1VwDophrCYoCvtlUG3OtUVmDG0YgkPCr2B2RP+v6TR81fZvAT6gt4y3wSJ8ADNXcL50CN/AAvkdgIm2fBldkKmKYcJRyvmfxqkhQ/8mJb2VVQrH4D6wPIOK+XW+6kvRBVK5xMOHds3OBqhK/bt1nz8MYIBuTCCAbUCAQEwdzBjMQswCQYDVQQGEwJVUzEXMBUGA1UEChMORGlnaUNlcnQsIEluYy4xOzA5BgNVBAMTMkRpZ2lDZXJ0IFRydXN0ZWQgRzQgUlNBNDA5NiBTSEEyNTYgVGltZVN0YW1waW5nIENBAhAMCy/HenjPuu1lVlTBmiQDMA0GCWCGSAFlAwQCAQUAoIHRMBoGCSqGSIb3DQEJAzENBgsqhkiG9w0BCRABBDAcBgkqhkiG9w0BCQUxDxcNMjUwMjI4MjI0MzAzWjArBgsqhkiG9w0BCRACDDEcMBowGDAWBBT3EwJUZBucztJRLWLFv58phIz8+DAvBgkqhkiG9w0BCQQxIgQg4SpqKxwOqYpHrpGH6S12gqqGWrLa5Jswmhw41ISX7dQwNwYLKoZIhvcNAQkQAi8xKDAmMCQwIgQguXomaB0Y6bl8Yz74SDlkVXWXltpQQ0Qsj4zN5SfgAKkwCgYIKoZIzj0EAwIESDBGAiEAl7AcrIGZ0dmfzUdDkRSmaAO3bC12YtJPa+sH7OQ2+DcCIQDczS5eZ1R1lPPReZYBrT6Ej1sXq5aklRSlJ4oK0tM2n2NwYWRZE4MAAAAAAAAAAAAAAAAAAAAAAAAAAAAAAAAAAAAAAAAAAAAAAAAAAAAAAAAAAAAAAAAAAAAAAAAAAAAAAAAAAAAAAAAAAAAAAAAAAAAAAAAAAAAAAAAAAAAAAAAAAAAAAAAAAAAAAAAAAAAAAAAAAAAAAAAAAAAAAAAAAAAAAAAAAAAAAAAAAAAAAAAAAAAAAAAAAAAAAAAAAAAAAAAAAAAAAAAAAAAAAAAAAAAAAAAAAAAAAAAAAAAAAAAAAAAAAAAAAAAAAAAAAAAAAAAAAAAAAAAAAAAAAAAAAAAAAAAAAAAAAAAAAAAAAAAAAAAAAAAAAAAAAAAAAAAAAAAAAAAAAAAAAAAAAAAAAAAAAAAAAAAAAAAAAAAAAAAAAAAAAAAAAAAAAAAAAAAAAAAAAAAAAAAAAAAAAAAAAAAAAAAAAAAAAAAAAAAAAAAAAAAAAAAAAAAAAAAAAAAAAAAAAAAAAAAAAAAAAAAAAAAAAAAAAAAAAAAAAAAAAAAAAAAAAAAAAAAAAAAAAAAAAAAAAAAAAAAAAAAAAAAAAAAAAAAAAAAAAAAAAAAAAAAAAAAAAAAAAAAAAAAAAAAAAAAAAAAAAAAAAAAAAAAAAAAAAAAAAAAAAAAAAAAAAAAAAAAAAAAAAAAAAAAAAAAAAAAAAAAAAAAAAAAAAAAAAAAAAAAAAAAAAAAAAAAAAAAAAAAAAAAAAAAAAAAAAAAAAAAAAAAAAAAAAAAAAAAAAAAAAAAAAAAAAAAAAAAAAAAAAAAAAAAAAAAAAAAAAAAAAAAAAAAAAAAAAAAAAAAAAAAAAAAAAAAAAAAAAAAAAAAAAAAAAAAAAAAAAAAAAAAAAAAAAAAAAAAAAAAAAAAAAAAAAAAAAAAAAAAAAAAAAAAAAAAAAAAAAAAAAAAAAAAAAAAAAAAAAAAAAAAAAAAAAAAAAAAAAAAAAAAAAAAAAAAAAAAAAAAAAAAAAAAAAAAAAAAAAAAAAAAAAAAAAAAAAAAAAAAAAAAAAAAAAAAAAAAAAAAAAAAAAAAAAAAAAAAAAAAAAAAAAAAAAAAAAAAAAAAAAAAAAAAAAAAAAAAAAAAAAAAAAAAAAAAAAAAAAAAAAAAAAAAAAAAAAAAAAAAAAAAAAAAAAAAAAAAAAAAAAAAAAAAAAAAAAAAAAAAAAAAAAAAAAAAAAAAAAAAAAAAAAAAAAAAAAAAAAAAAAAAAAAAAAAAAAAAAAAAAAAAAAAAAAAAAAAAAAAAAAAAAAAAAAAAAAAAAAAAAAAAAAAAAAAAAAAAAAAAAAAAAAAAAAAAAAAAAAAAAAAAAAAAAAAAAAAAAAAAAAAAAAAAAAAAAAAAAAAAAAAAAAAAAAAAAAAAAAAAAAAAAAAAAAAAAAAAAAAAAAAAAAAAAAAAAAAAAAAAAAAAAAAAAAAAAAAAAAAAAAAAAAAAAAAAAAAAAAAAAAAAAAAAAAAAAAAAAAAAAAAAAAAAAAAAAAAAAAAAAAAAAAAAAAAAAAAAAAAAAAAAAAAAAAAAAAAAAAAAAAAAAAAAAAAAAAAAAAAAAAAAAAAAAAAAAAAAAAAAAAAAAAAAAAAAAAAAAAAAAAAAAAAAAAAAAAAAAAAAAAAAAAAAAAAAAAAAAAAAAAAAAAAAAAAAAAAAAAAAAAAAAAAAAAAAAAAAAAAAAAAAAAAAAAAAAAAAAAAAAAAAAAAAAAAAAAAAAAAAAAAAAAAAAAAAAAAAAAAAAAAAAAAAAAAAAAAAAAAAAAAAAAAAAAAAAAAAAAAAAAAAAAAAAAAAAAAAAAAAAAAAAAAAAAAAAAAAAAAAAAAAAAAAAAAAAAAAAAAAAAAAAAAAAAAAAAAAAAAAAAAAAAAAAAAAAAAAAAAAAAAAAAAAAAAAAAAAAAAAAAAAAAAAAAAAAAAAAAAAAAAAAAAAAAAAAAAAAAAAAAAAAAAAAAAAAAAAAAAAAAAAAAAAAAAAAAAAAAAAAAAAAAAAAAAAAAAAAAAAAAAAAAAAAAAAAAAAAAAAAAAAAAAAAAAAAAAAAAAAAAAAAAAAAAAAAAAAAAAAAAAAAAAAAAAAAAAAAAAAAAAAAAAAAAAAAAAAAAAAAAAAAAAAAAAAAAAAAAAAAAAAAAAAAAAAAAAAAAAAAAAAAAAAAAAAAAAAAAAAAAAAAAAAAAAAAAAAAAAAAAAAAAAAAAAAAAAAAAAAAAAAAAAAAAAAAAAAAAAAAAAAAAAAAAAAAAAAAAAAAAAAAAAAAAAAAAAAAAAAAAAAAAAAAAAAAAAAAAAAAAAAAAAAAAAAAAAAAAAAAAAAAAAAAAAAAAAAAAAAAAAAAAAAAAAAAAAAAAAAAAAAAAAAAAAAAAAAAAAAAAAAAAAAAAAAAAAAAAAAAAAAAAAAAAAAAAAAAAAAAAAAAAAAAAAAAAAAAAAAAAAAAAAAAAAAAAAAAAAAAAAAAAAAAAAAAAAAAAAAAAAAAAAAAAAAAAAAAAAAAAAAAAAAAAAAAAAAAAAAAAAAAAAAAAAAAAAAAAAAAAAAAAAAAAAAAAAAAAAAAAAAAAAAAAAAAAAAAAAAAAAAAAAAAAAAAAAAAAAAAAAAAAAAAAAAAAAAAAAAAAAAAAAAAAAAAAAAAAAAAAAAAAAAAAAAAAAAAAAAAAAAAAAAAAAAAAAAAAAAAAAAAAAAAAAAAAAAAAAAAAAAAAAAAAAAAAAAAAAAAAAAAAAAAAAAAAAAAAAAAAAAAAAAAAAAAAAAAAAAAAAAAAAAAAAAAAAAAAAAAAAAAAAAAAAAAAAAAAAAAAAAAAAAAAAAAAAAAAAAAAAAAAAAAAAAAAAAAAAAAAAAAAAAAAAAAAAAAAAAAAAAAAAAAAAAAAAAAAAAAAAAAAAAAAAAAAAAAAAAAAAAAAAAAAAAAAAAAAAAAAAAAAAAAAAAAAAAAAAAAAAAAAAAAAAAAAAAAAAAAAAAAAAAAAAAAAAAAAAAAAAAAAAAAAAAAAAAAAAAAAAAAAAAAAAAAAAAAAAAAAAAAAAAAAAAAAAAAAAAAAAAAAAAAAAAAAAAAAAAAAAAAAAAAAAAAAAAAAAAAAAAAAAAAAAAAAAAAAAAAAAAAAAAAAAAAAAAAAAAAAAAAAAAAAAAAAAAAAAAAAAAAAAAAAAAAAAAAAAAAAAAAAAAAAAAAAAAAAAAAAAAAAAAAAAAAAAAAAAAAAAAAAAAAAAAAAAAAAAAAAAAAAAAAAAAAAAAAAAAAAAAAAAAAAAAAAAAAAAAAAAAAAAAAAAAAAAAAAAAAAAAAAAAAAAAAAAAAAAAAAAAAAAAAAAAAAAAAAAAAAAAAAAAAAAAAAAAAAAAAAAAAAAAAAAAAAAAAAAAAAAAAAAAAAAAAAAAAAAAAAAAAAAAAAAAAAAAAAAAAAAAAAAAAAAAAAAAAAAAAAAAAAAAAAAAAAAAAAAAAAAAAAAAAAAAAAAAAAAAAAAAAAAAAAAAAAAAAAAAAAAAAAAAAAAAAAAAAAAAAAAAAAAAAAAAAAAAAAAAAAAAAAAAAAAAAAAAAAAAAAAAAAAAAAAAAAAAAAAAAAAAAAAAAAAAAAAAAAAAAAAAAAAAAAAAAAAAAAAAAAAAAAAAAAAAAAAAAAAAAAAAAAAAAAAAAAAAAAAAAAAAAAAAAAAAAAAAAAAAAAAAAAAAAAAAAAAAAAAAAAAAAAAAAAAAAAAAAAAAAAAAAAAAAAAAAAAAAAAAAAAAAAAAAAAAAAAAAAAAAAAAAAAAAAAAAAAAAAAAAAAAAAAAAAAAAAAAAAAAAAAAAAAAAAAAAAAAAAAAAAAAAAAAAAAAAAAAAAAAAAAAAAAAAAAAAAAAAAAAAAAAAAAAAAAAAAAAAAAAAAAAAAAAAAAAAAAAAAAAAAAAAAAAAAAAAAAAAAAAAAAAAAAAAAAAAAAAAAAAAAAAAAAAAAAAAAAAAAAAAAAAAAAAAAAAAAAAAAAAAAAAAAAAAAAAAAAAAAAAAAAAAAAAAAAAAAAAAAAAAAAAAAAAAAAAAAAAAAAAAAAAAAAAAAAAAAAAAAAAAAAAAAAAAAAAAAAAAAAAAAAAAAAAAAAAAAAAAAAAAAAAAAAAAAAAAAAAAAAAAAAAAAAAAAAAAAAAAAAAAAAAAAAAAAAAAAAAAAAAAAAAAAAAAAAAAAAAAAAAAAAAAAAAAAAAAAAAAAAAAAAAAAAAAAAAAAAAAAAAAAAAAAAAAAAAAAAAAAAAAAAAAAAAAAAAAAAAAAAAAAAAAAAAAAAAAAAAAAAAAAAAAAAAAAAAAAAAAAAAAAAAAAAAAAAAAAAAAAAAAAAAAAAAAAAAAAAAAAAAAAAAAAAAAAAAAAAAAAAAAAAAAAAAAAAAAAAAAAAAAAAAAAAAAAAAAAAAAAAAAAAAAAAAAAAAAAAAAAAAAAAAAAAAAAAAAAAAAAAAAAAAAAAAAAAAAAAAAAAAAAAAAAAAAAAAAAAAAAAAAAAAAAAAAAAAAAAAAAAAAAAAAAAAAAAAAAAAAAAAAAAAAAAAAAAAAAAAAAAAAAAAAAAAAAAAAAAAAAAAAAAAAAAAAAAAAAAAAAAAAAAAAAAAAAAAAAAAAAAAAAAAAAAAAAAAAAAAAAAAAAAAAAAAAAAAAAAAAAAAAAAAAAAAAAAAAAAAAAAAAAAAAAAAAAAAAAAAAAAAAAAAAAAAAAAAAAAAAAAAAAAAAAAAAAAAAAAAAAAAAAAAAAAAAAAAAAAAAAAAAAAAAAAAAAAAAAAAAAAAAAAAAAAAAAAAAAAAAAAAAAAAAAAAAAAAAAAAAAAAAAAAAAAAAAAAAAAAAAAAAAAAAAAAAAAAAAAAAAAAAAAAAAAAAAAAAAAAAAAAAAAAAAAAAAAAAAAAAAAAAAAAAAAAAAAAAAAAAAAAAAAAAAAAAAAAAAAAAAAAAAAAAAAAAAAAAAAAAAAAAAAAAAAAAAAAAAAAAAAAAAAAAAAAAAAAAAAAAAAAAAAAAAAAAAAAAAAAAAAAAAAAAAAAAAAAAAAAAAAAAAAAAAAAAAAAAAAAAAAAAAAAAAAAAAAAAAAAAAAAAAAAAAAAAAAAAAAAAAAAAAAAAAAAAAAAAAAAAAAAAAAAAAAAAAAAAAAAAAAAAAAAAAAAAAAAAAAAAAAAAAAAAAAAAAAAAAAAAAAAAAAAAAAAAAAAAAAAAAAAAAAAAAAAAAAAAAAAAAAAAAAAAAAAAAAAAAAAAAAAAAAAAAAAAAAAAAAAAAAAAAAAAAAAAAAAAAAAAAAAAAAAAAAAAAAAAAAAAAAAAAAAAAAAAAAAAAAAAAAAAAAAAAAAAAAAAAAAAAAAAAAAAAAAAAAAAAAAAAAAAAAAAAAAAAAAAAAAAAAAAAAAAAAAAAAAAAAAAAAAAAAAAAAAAAAAAAAAAAAAAAAAAAAAAAAAAAAAAAAAAAAAAAAAAAAAAAAAAAAAAAAAAAAAAAAAAAAAAAAAAAAAAAAAAAAAAAAAAAAAAAAAAAAAAAAAAAAAAAAAAAAAAAAAAAAAAAAAAAAAAAAAAAAAAAAAAAAAAAAAAAAAAAAAAAAAAAAAAAAAAAAAAAAAAAAAAAAAAAAAAAAAAAAAAAAAAAAAAAAAAAAAAAAAAAAAAAAAAAAAAAAAAAAAAAAAAAAAAAAAAAAAAAAAAAAAAAAAAAAAAAAAAAAAAAAAAAAAAAAAAAAAAAAAAAAAAAAAAAAAAAAAAAAAAAAAAAAAAAAAAAAAAAAAAAAAAAAAAAAAAAAAAAAAAAAAAAAAAAAAAAAAAAAAAAAAAAAAAAAAAAAAAAAAAAAAAAAAAAAAAAAAAAAAAAAAAAAAAAAAAAAAAAAAAAAAAAAAAAAAAAAAAAAAAAAAAAAAAAAAAAAAAAAAAAAAAAAAAAAAAAAAAAAAAAAAAAAAAAAAAAAAAAAAAAAAAAAAAAAAAAAAAAAAAAAAAAAAAAAAAAAAAAAAAAAAAAAAAAAAAAAAAAAAAAAAAAAAAAAAAAAAAAAAAAAAAAAAAAAAAAAAAAAAAAAAAAAAAAAAAAAAAAAAAAAAAAAAAAAAAAAAAAAAAAAAAAAAAAAAAAAAAAAAAAAAAAAAAAAAAAAAAAAAAAAAAAAAAAAAAAAAAAAAAAAAAAAAAAAAAAAAAAAAAAAAAAAAAAAAAAAAAAAAAAAAAAAAAAAAAAAAAAAAAAAAAAAAAAAAAAAAAAAAAAAAAAAAAAAAAAAAAAAAAAAAAAAAAAAAAAAAAAAAAAAAAAAAAAAAAAAAAAAAAAAAAAAAAAAAAAAAAAAAAAAAAAAAAAAAAAAAAAAAAAAAAAAAAAAAAAAAAAAAAAAAAAAAAAAAAAAAAAAAAAAAAAAAAAAAAAAAAAAAAAAAAAAAAAAAAAAAAAAAAAAAAAAAAAAAAAAAAAAAAAAAAAAAAAAAAAAAAAAAAAAAAAAAAAAAAAAAAAAAAAAAAAAAAAAAAAAAAAAAAAAAAAAAAAAAAAAAAAAAAAAAAAAAAAAAAAAAAAAAAAAAAAAAAAAAAAAAAAAAAAAAAAAAAAAAAAAAAAAAAAAAAAAAAAAAAAAAAAAAAAAAAAAAAAAAAAAAAAAAAAAAAAAAAAAAAAAAAAAAAAAAAAAAAAAAAAAAAAAAAAAAAAAAAAAAAAAAAAAAAAAAAAAAAAAAAAAAAAAAAAAAAAAAAAAAAAAAAAAAAAAAAAAAAAAAAAAAAAAAAAAAAAAAAAAAAAAAAAAAAAAAAAAAAAAD2WQEAuIOkJSgdhyQpK/q5rpW13h2GuTt7NDmVb1JQqH0kDp0obCddnTpKqAb+mTcjUXeiekOtbKjQFB9GU2pLdDjmWNtqywO4YtQp9q1+C5kh1HyiLrm6e+8z7+nyOxgnT1Kv7AQW/93lZ3GLuWgbKmXriJQbEg7HmUcEFZeOljgu4iIHXHkleoKyoWbGEhkaoKBLE5qhv0zlwYn0ktZk4wRskRX7SfEo1fT4lATP3lnAGPskJQefGWJIZGrXAYkgPSWavD7JwwWyS7ACJVz0qJYwsJXIu9XhbH4w5KVBshmgUpWPAuigWTJXYniBw8MdRxObiPl1p8mJx7cUWe7wkkLMTA==</metadata>
 <g class="layer">
  <title>Layer 1</title>
  <path d="m468.03,322.63c0.18,0.69 -0.31,1.17 -1.04,1.03c-14.1,-5.81 -63.2,-29.26 -64.06,-43.28c52.1,21.69 89.32,-61.53 83.26,-90.56c-3.26,16.17 -34.64,36.36 -48.77,33.2c-1.58,-0.35 -19.41,20.57 -14.01,24.38c-6.98,10.77 -13.96,63.61 -22.82,66.92c-0.3,0.11 -0.71,-0.09 -1.04,0c-35.58,-11.3 -65.33,-7.05 -87.15,-44.09c-14.48,-24.57 -2.94,-18.03 12.97,-28.53c31.52,-20.84 20.58,-34.16 36.83,-62.77c36.25,-63.86 111.11,-38.08 129.69,-4.15c22.05,40.25 -9.08,95.48 25.94,139.03c-15.82,6.73 -46.39,5.58 -50.32,6.74c-2.04,0.6 0.49,1.97 0.52,2.08z" fill="#090814" id="svg_1"/>
  <path d="m352.03,220.97c0,-39.45 31.98,-71.43 71.42,-71.43c39.45,0 71.43,31.98 71.43,71.43c0,31.99 -21.03,59.07 -50.03,68.16l-10.65,8.58l19.12,66.92l-22.27,15.75l-70.4,-58.65s15.21,-19.37 23.37,-41.21c-19.28,-12.8 -31.99,-34.68 -31.99,-59.55z" fill="#ffb6b6" id="svg_2"/>
  <path d="m671.12,403.97l-51.18,177.84l-51.75,-35.92l60.99,-155.16c-5.32,-9.84 -6.64,-22.79 -2.6,-35.59c7.07,-22.39 27.82,-35.8 46.35,-29.95c18.53,5.85 27.82,28.74 20.75,51.14c-4.04,12.79 -12.55,22.63 -22.56,27.64z" fill="#ffb6b6" id="svg_3"/>
  <rect fill="#ffb6b6" height="215" id="svg_4" width="184.6" x="315.73" y="474.19"/>
  <polygon fill="#d6d6e3" id="svg_5" points="377.69838 302.74933 333.81598 402.96172 338.15822 575.19189 486.47088 575.19189 491.12644 392.44302 436.06339 307.57157 377.69838 302.74933"/>
  <path d="m289.54,342.63s-12.85,368.51 -47.35,429.32c0,0 47.67,8.31 59.8,-8.87c12.12,-17.18 58.89,-131.57 59.39,-156.9c0.51,-25.33 15.16,-303.55 15.16,-303.55l-87,40z" fill="#090814" id="svg_6"/>
  <path d="m432.19,317.7l3.87,-10.13l98.36,39.06s-4.59,368.28 35.23,405.49c0,0 -66.52,-3.17 -68.73,-4.7s-50.5,-191.96 -50.5,-191.96c0,0 23.02,-88.22 24.8,-125.89c1.77,-37.66 -43.03,-111.87 -43.03,-111.87z" fill="#090814" id="svg_7"/>
  <polygon fill="#090814" id="svg_8" points="304.4003 608.47944 262.53005 735.71132 260.03568 796.54686 569.62359 796.54686 509.91519 608.47944 304.4003 608.47944"/>
  <path d="m509.46,353.83l24.96,-7.2l57.39,116.22l24.59,-63.66l60.76,17.36s-27.62,179.23 -69.37,169.59c-41.76,-9.64 -98.33,-108.06 -98.33,-108.06l0,-124.25z" fill="#090814" id="svg_9"/>
  <path d="m263.45,708.73l-83.75,-121.75l38.5,-33.87l78.7,132.51c10.21,1.7 20.41,8.08 27.46,18.28c12.34,17.86 10.37,40.62 -4.41,50.83c-14.78,10.21 -36.77,4.01 -49.11,-13.85c-7.05,-10.2 -9.41,-22 -7.39,-32.15z" fill="#ffb6b6" id="svg_10"/>
  <path d="m304.4,352.9l-14.86,-10.27l-121.61,229.68s-9.87,13.85 3,36.17c12.88,22.32 78.98,90.66 78.98,90.66l52.08,-29.42l-53.05,-98.85l50,-86.49l5.46,-131.48z" fill="#090814" id="svg_11"/>
  <path d="m486.19,189.82c-3.26,16.17 -68.18,53.77 -62.78,57.58c-6.98,10.77 -13.96,63.61 -22.82,66.92c-0.3,0.11 -0.71,-0.09 -1.04,0c-35.58,-11.3 -65.33,-7.05 -87.15,-44.09c-14.48,-24.57 -2.94,-18.03 12.97,-28.53c31.52,-20.84 20.58,-34.16 36.83,-62.77c36.25,-63.86 111.11,-38.08 129.69,-4.15c22.05,40.25 0.36,44.07 -5.7,15.04z" fill="#090814" id="svg_12"/>
  <path d="m764.83,163.63c0,7.76 -0.7,15.49 -2.07,23.02c-2.34,9.28 -6.03,18.59 -11.18,27.74c-9.47,16.81 -19.61,23.08 -27.95,39.55c-1.43,1.1 -2.91,2.1 -4.41,3.08c-3,1.93 -3.32,11.4 -6.52,13.03c-0.02,0.02 -0.04,0.02 -0.06,0.04c-0.59,0.42 -1.13,2.44 -1.65,5.48l0,0.04c-1.61,9.4 -3,28.54 -4.6,39.85c-0.22,1.37 -0.42,2.63 -0.63,3.74c-0.55,2.99 -1.11,4.9 -1.74,5.14c-7.76,3 -11.06,-1.1 -19.55,0c-4.56,0.61 -27.84,4.35 -32.57,4.35c-13.45,0 -20.72,-4.59 -31.6,-9.49c-0.76,-0.33 -1.52,-0.68 -2.33,-1.02c-0.28,-0.11 -0.54,-0.24 -0.82,-0.35c-3.13,-1.33 -6.08,-34.73 -9.01,-47.37c-0.03,-0.02 -0.03,-0.04 -0.03,-0.06c-0.6,-2.63 -1.21,-4.35 -1.82,-4.69c-0.15,-0.09 -0.3,-0.18 -0.46,-0.26c-1.93,-1.11 -3.82,-2.33 -5.66,-3.59c-11.19,-18.63 -32.8,-36.35 -43.46,-65.35c-3.06,-10.88 -4.71,-22.04 -4.71,-32.88c0,-58.76 47.64,-106.41 106.41,-106.41s106.42,47.65 106.42,106.41z" fill="#f04830" id="svg_13"/>
  <path d="m762.76,186.65c-2.34,9.28 -6.03,18.59 -11.18,27.74c-9.47,16.81 -19.61,23.08 -27.95,39.55c-5.54,10.96 -10.3,26.45 -13.51,52.55c-0.2,1.54 0.22,3.3 0,4.82c-0.5,3.37 0.11,2.76 -1.93,5.8c-0.94,0.52 -1.5,-0.22 -1.8,-1.65c-0.57,-2.41 -0.42,-6.86 -0.14,-10.9c0.74,-11.03 2.42,-20.59 4.74,-28.95l0,-0.04c0.52,-1.89 1.08,-3.72 1.65,-5.48c10.05,-30.62 28.6,-44.5 37.01,-60.52c44.15,-84.01 -37.44,-177.78 -127.31,-145.16c-4.82,1.76 -4.56,2.78 -4.82,2.91c-6.76,2.93 -12.25,4.21 -18.81,8.66c-39.83,27.11 -54.12,80.73 -36.16,124.9c9.73,23.91 30.1,37.4 43.28,64.57c0.79,1.58 1.55,3.23 2.28,4.95c0,0.02 0,0.04 0.03,0.06c5.29,12.45 9.05,27.71 9.83,47.72c0.03,0.28 0.05,0.56 0.05,0.84c0.78,0.07 1.54,0.11 2.28,0.18c11.53,0.99 19,2.84 22.87,0.84l4.25,0.44c1.41,1.97 25.13,-0.44 28.93,-0.48l0.98,0c9.44,-0.13 18.98,0.35 28.43,-0.8c0.47,-0.05 0.97,-0.11 1.45,-0.18c2.45,0.7 1.8,2.78 1.93,2.91c0.31,2.74 -4.23,10.67 -5.77,11.56c-4.46,2.6 -76.99,3.93 -83.92,-0.96c-7.32,-5.17 -3.71,-12.31 -3.84,-13.01c-0.13,-0.61 -2.8,-2.34 -2.91,-2.91c-1.31,-7.38 0.24,-26.12 -8.67,-47.26c-1.06,-2.54 -2.37,-5.01 -3.86,-7.49c-11.19,-18.63 -32.8,-36.35 -43.46,-65.35c-4.95,-13.42 -7.56,-29.23 -5.73,-48.66c3.84,-40.83 39.07,-81.01 78.59,-91.15c82.72,-21.24 152.57,53.77 133.19,129.95z" fill="#010001" id="svg_14"/>
  <path d="m704.41,335.74c6.88,6.55 3.2,8.76 0,16.4c-4.05,-0.91 -73.3,3.51 -82.95,0c-6.47,-2.36 -8.31,-10.86 -2.89,-16.4c27.58,3.13 58.38,3.24 85.84,0z" fill="#010001" id="svg_15"/>
  <path d="m708.26,355.03c2.71,6.02 -2.47,9.72 -4.82,14.47l-4.82,0.96l-76.19,-0.96c-4.6,-0.89 -7.5,-7.31 -8.68,-11.58c0.14,-0.07 -0.55,-1.55 1.44,-2.89l6.27,-1.93c19.79,1.92 55.96,2.8 75.71,1.93c0.59,-0.03 3.82,-3.2 11.09,0z" fill="#010001" id="svg_16"/>
  <path d="m657.85,0.17c4.08,-2.78 4.16,29.8 2.9,30.86c-4.76,4.01 -4.26,-29.93 -2.9,-30.86z" fill="#010001" id="svg_17"/>
  <path d="m625.06,3.06c3.21,-2.06 10.61,28.78 10.13,30.38c-2.72,9.08 -11.64,-29.41 -10.13,-30.38z" fill="#010001" id="svg_18"/>
  <path d="m690.65,3.06c3.82,-1 -2.61,28.99 -3.38,30.38c-7.23,13.16 1.3,-29.83 3.38,-30.38z" fill="#010001" id="svg_19"/>
  <polygon fill="#0f0f10" id="svg_20" points="645.75109 276.56447 643.75109 276.56447 643.75109 243.89455 606.92785 165.91506 608.73644 165.06105 645.75109 243.44631 645.75109 276.56447"/>
  <polygon fill="#0f0f10" id="svg_21" points="676.87316 276.60939 675.23547 240.31496 675.26965 240.17629 694.81555 159.82228 696.7589 160.29494 677.24719 240.51027 678.87121 276.51955 676.87316 276.60939"/>
  <path d="m872.19,796.51l-867.47,0c-2.81,-0.22 -4.89,-2.66 -4.71,-5.47c-0.18,-2.78 1.9,-5.23 4.71,-5.44l867.47,0c2.47,0.3 4.43,2.26 4.73,4.73c0.4,3.03 -1.71,5.78 -4.73,6.18z" fill="#ccc" id="svg_22"/>
 </g>
</svg>